<?xml version="1.0" encoding="UTF-8"?>
<svg version="1.1" xmlns="http://www.w3.org/2000/svg" width="2000" height="2389">
<path d="M0 0 C5.9220616 0.01139347 11.84394335 0.00460841 17.76599884 -0.00687885 C45.11147845 -0.05186943 72.34660023 0.36652549 99.63882446 2.1332016 C101.47918488 2.25228634 103.31978509 2.36764904 105.16040039 2.48272705 C111.81627748 2.90384653 118.46367402 3.39564998 125.10986328 3.94824219 C126.09216919 4.0286676 127.0744751 4.10909302 128.08654785 4.19195557 C224.59869564 12.20005398 320.23166011 31.15304448 558.60986328 132.26074219 C559.93896729 133.05665771 559.93896729 133.05665771 561.29492188 133.86865234 C582.85381167 146.82981975 603.53028434 161.11993061 623.60986328 176.26074219 C624.34672363 176.81213867 625.08358398 177.36353516 625.84277344 177.93164062 C634.62945207 184.50959323 643.15074884 191.29167967 651.42236328 198.50683594 C654.2169442 200.94042237 657.08548703 203.26495901 659.98486328 205.57324219 C666.82601608 211.13042496 673.14830391 217.23770139 679.53710938 223.30126953 C683.49020131 227.03831498 687.48301369 230.73307221 691.47412109 234.42944336 C696.88535169 239.4634121 702.2802484 244.53961491 707.04736328 250.19824219 C709.46604107 253.00650566 711.96886011 255.66044812 714.60986328 258.26074219 C718.49001943 262.09646907 722.06611937 266.11497228 725.60986328 270.26074219 C726.49221808 271.279368 727.37506973 272.29756356 728.25830078 273.31542969 C741.07809307 288.12583294 753.17419437 303.35439082 764.60986328 319.26074219 C765.17817871 320.04932617 765.74649414 320.83791016 766.33203125 321.65039062 C786.7656008 350.11164214 804.75764754 380.02860742 820.60986328 411.26074219 C820.97241211 411.97069336 821.33496094 412.68064453 821.70849609 413.41210938 C823.67619605 417.26895456 825.60649 421.14245753 827.51123047 425.03076172 C828.2971692 426.62604269 829.09031069 428.21778316 829.88818359 429.80712891 C839.27702553 448.52195583 847.12460807 467.72364129 854.60986328 487.26074219 C855.07134766 488.46037598 855.53283203 489.66000977 856.00830078 490.89599609 C883.89434536 564.107426 897.37067918 642.44801797 903.60986328 720.26074219 C903.66809265 720.97846802 903.72632202 721.69619385 903.78631592 722.43566895 C910.95754448 811.68637083 906.68461742 903.3913474 832.60986328 1171.26074219 C832.32500061 1171.8740741 832.04013794 1172.48740601 831.74664307 1173.11932373 C824.17372634 1189.39899303 816.07521213 1205.27395474 807.03369141 1220.79638672 C805.35562447 1223.70077761 803.73411424 1226.63357112 802.1171875 1229.57226562 C778.86226371 1271.70921106 748.99961433 1311.13905656 716.27783203 1346.34667969 C714.90553137 1347.84556152 713.53575062 1349.34792054 712.21948242 1350.89624023 C706.67549765 1357.41373522 700.61466023 1363.40683283 694.55834961 1369.44262695 C692.67658054 1371.31903694 690.8002159 1373.20073188 688.92431641 1375.08300781 C682.98680217 1381.02381725 677.0179285 1386.82380112 670.60986328 1392.26074219 C668.83416107 1393.88042035 667.06278021 1395.50485937 665.29736328 1397.13574219 C660.78561135 1401.24976392 656.15421896 1405.16184028 651.40283203 1408.99511719 C648.56464677 1411.29742132 645.77509844 1413.65065242 642.98486328 1416.01074219 C616.08572045 1438.43824916 586.76810729 1458.48026162 556.60986328 1476.26074219 C555.87993164 1476.69370605 555.15 1477.12666992 554.39794922 1477.57275391 C499.38794814 1510.13041949 441.33979071 1535.1824072 380.53277588 1554.64343262 C378.75400945 1555.21446717 376.9774857 1555.79247498 375.20117188 1556.37109375 C285.54765607 1585.54505833 190.66639999 1599.79203324 87.60986328 1606.26074219 C86.49691895 1606.32745117 85.38397461 1606.39416016 84.23730469 1606.46289062 C78.03021885 1606.82133843 71.82400349 1607.06479639 65.60986328 1607.26074219 C64.32096191 1607.30440918 63.03206055 1607.34807617 61.70410156 1607.39306641 C-36.5668426 1610.6860901 -134.87537693 1605.09931465 -377.39013672 1551.26074219 C-378.81426801 1550.79192427 -380.23842129 1550.32317315 -381.66259766 1549.85449219 C-409.88231205 1540.54010634 -437.32904144 1529.55394762 -464.39013672 1517.26074219 C-465.59202637 1516.71659668 -466.79391602 1516.17245117 -468.03222656 1515.61181641 C-483.63722478 1508.53106169 -498.93240669 1501.09598231 -513.86816406 1492.67236328 C-516.35926258 1491.27802334 -518.86483013 1489.9148419 -521.37841797 1488.56152344 C-554.405267 1470.74929025 -585.77190025 1449.82608044 -615.39404297 1426.81152344 C-617.28520699 1425.34226293 -619.18111284 1423.8793227 -621.07763672 1422.41699219 C-628.79304601 1416.44040182 -636.24118822 1410.19681195 -643.609375 1403.79882812 C-645.44266059 1402.21537608 -647.28753466 1400.64647872 -649.13623047 1399.08105469 C-659.92323856 1389.93573243 -659.92323856 1389.93573243 -664.72216797 1384.92773438 C-666.35124132 1383.29961481 -668.04079933 1381.82411987 -669.80029297 1380.33886719 C-675.20712676 1375.63697658 -680.23595537 1370.56471424 -685.2902832 1365.4909668 C-686.94940992 1363.82647941 -688.61381723 1362.16740772 -690.27880859 1360.50878906 C-695.86005128 1354.93103726 -701.27600654 1349.27425697 -706.39013672 1343.26074219 C-707.84459189 1341.65305846 -709.30234567 1340.04834504 -710.76513672 1338.44824219 C-714.5892815 1334.20633369 -718.23903127 1329.85523122 -721.82763672 1325.41308594 C-723.72034584 1323.07214338 -725.64263847 1320.75825007 -727.57763672 1318.45214844 C-736.29727211 1308.03259831 -744.47545127 1297.30243506 -752.39013672 1286.26074219 C-752.96763672 1285.45765625 -753.54513672 1284.65457031 -754.14013672 1283.82714844 C-812.60963228 1202.25698164 -852.7832292 1108.17201332 -888.39013672 911.26074219 C-888.46899109 910.49753662 -888.54784546 909.73433105 -888.62908936 908.94799805 C-897.86800203 818.69830546 -895.19973664 726.13514352 -814.39013672 424.26074219 C-813.91721191 423.27493164 -813.44428711 422.28912109 -812.95703125 421.2734375 C-806.46682474 407.83223594 -799.36563869 394.78833683 -791.89648438 381.86767578 C-790.54612926 379.53070789 -789.20697877 377.18775068 -787.87060547 374.84277344 C-770.49097097 344.57619907 -750.01791357 315.96090159 -727.84619141 289.03710938 C-726.55052375 287.45641221 -725.27001039 285.86332074 -723.99169922 284.26855469 C-718.96998348 278.01407119 -713.64355942 272.11783458 -708.17138672 266.26074219 C-705.97946023 263.91057501 -703.85361366 261.51636615 -701.76513672 259.07324219 C-698.29628002 255.05310019 -694.51615017 251.37062198 -690.73779297 247.64355469 C-688.80308492 245.67987431 -687.01450524 243.69917777 -685.26513672 241.57324219 C-682.68051318 238.47169394 -679.79926652 235.95086575 -676.72607422 233.34277344 C-673.82847515 230.76013079 -671.11536322 228.02293964 -668.39013672 225.26074219 C-663.88361979 220.71044568 -659.27211638 216.40877558 -654.39013672 212.26074219 C-653.24316075 211.26335676 -652.09745094 210.26451441 -650.95263672 209.26464844 C-614.94274085 177.83447266 -575.81720036 150.10305772 -534.39013672 126.26074219 C-533.58656738 125.79812988 -532.78299805 125.33551758 -531.95507812 124.85888672 C-520.22831806 118.15111012 -508.24964826 111.90497868 -496.23681641 105.72802734 C-493.59754318 104.36764723 -490.96632383 102.99273506 -488.33544922 101.61621094 C-462.61894908 88.31302142 -435.56428836 77.19761748 -408.39013672 67.26074219 C-407.16488281 66.80812012 -405.93962891 66.35549805 -404.67724609 65.88916016 C-313.49024317 32.27851788 -217.23585094 13.24825747 -111.26513672 4.01074219 C-110.34858307 3.93360992 -109.43202942 3.85647766 -108.48770142 3.77700806 C-101.45986143 3.19427198 -94.42771832 2.70948155 -87.39013672 2.26074219 C-86.73575119 2.21799667 -86.08136566 2.17525116 -85.40715027 2.13121033 C-56.93804571 0.27796731 -28.52358808 -0.05532064 0 0 Z M-127.62255859 411.30664062 C-153.16226418 439.54142012 -166.22608457 478.07448499 -175.39013672 514.26074219 C-175.77830566 515.79311523 -175.77830566 515.79311523 -176.17431641 517.35644531 C-200.22990076 614.37148893 -198.85607172 719.62276688 -144.37939453 1172.91479492 C-138.61117752 1182.37124374 -131.97606191 1190.88682271 -124.43310547 1199.00683594 C-122.39013672 1201.26074219 -122.39013672 1201.26074219 -120.44482422 1203.77636719 C-116.71222423 1208.28954892 -111.98629667 1211.66716115 -107.39013672 1215.26074219 C-106.54322266 1215.93492187 -105.69630859 1216.60910156 -104.82373047 1217.30371094 C-85.36181061 1232.18985116 -62.22649378 1239.84199192 -38.39013672 1244.26074219 C-37.5198584 1244.42590332 -36.64958008 1244.59106445 -35.75292969 1244.76123047 C-8.30201115 1249.71458711 23.25084298 1249.7849029 50.60986328 1244.26074219 C51.49818848 1244.08381836 52.38651367 1243.90689453 53.30175781 1243.72460938 C83.00372549 1237.61647963 109.02853691 1225.60841433 131.60986328 1205.26074219 C132.31369141 1204.64070313 133.01751953 1204.02066406 133.74267578 1203.38183594 C195.8734249 1145.28048686 201.54964391 1036.44652277 210.07167053 895.68388844 C211.00444181 867.54220179 210.91032693 839.38665573 210.86700141 811.23297298 C210.85945547 805.76067767 210.86219067 800.28845478 210.87060547 794.81616211 C211.00266119 706.61544483 210.43742969 615.90731656 132.10107422 402.71289062 C107.89424105 379.14015918 76.38194395 367.63431557 43.60986328 362.26074219 C42.9023291 362.14214844 42.19479492 362.02355469 41.46582031 361.90136719 C-19.24067048 352.28222976 -84.71180895 365.68879989 -127.62255859 411.30664062 Z " fill="#8EB4E5" transform="translate(993.39013671875,296.7392578125)"/>
<path d="M0 0 C10.56 0 21.12 0 32 0 C32 3.63 32 7.26 32 11 C28.7 11 25.4 11 22 11 C22 23.87 22 36.74 22 50 C30.91 50 39.82 50 49 50 C49 37.13 49 24.26 49 11 C45.7 11 42.4 11 39 11 C39 7.37 39 3.74 39 0 C49.56 0 60.12 0 71 0 C71 3.63 71 7.26 71 11 C67.7 11 64.4 11 61 11 C61 42.35 61 73.7 61 106 C64.3 106 67.6 106 71 106 C71 109.3 71 112.6 71 116 C60.44 116 49.88 116 39 116 C39 112.7 39 109.4 39 106 C42.3 106 45.6 106 49 106 C49 90.82 49 75.64 49 60 C40.09 60 31.18 60 22 60 C22 75.18 22 90.36 22 106 C25.3 106 28.6 106 32 106 C32 109.3 32 112.6 32 116 C21.44 116 10.88 116 0 116 C0 112.7 0 109.4 0 106 C3.3 106 6.6 106 10 106 C10 74.65 10 43.3 10 11 C6.7 11 3.4 11 0 11 C0 7.37 0 3.74 0 0 Z " fill="#8DB4E4" transform="translate(1335,2104)"/>
<path d="M0 0 C10.56 0 21.12 0 32 0 C32 3.63 32 7.26 32 11 C28.7 11 25.4 11 22 11 C22.33 21.89 22.66 32.78 23 44 C27.80278719 35.01112114 27.80278719 35.01112114 32.6027832 26.02075195 C33.20437256 24.89628662 33.80596191 23.77182129 34.42578125 22.61328125 C35.03848877 21.46641846 35.65119629 20.31955566 36.2824707 19.13793945 C37.79154573 16.38084759 39.35996729 13.68069603 41 11 C39.35 11 37.7 11 36 11 C36 7.37 36 3.74 36 0 C44.58 0 53.16 0 62 0 C62 3.63 62 7.26 62 11 C59.03 11 56.06 11 53 11 C52.72454346 11.71768555 52.44908691 12.43537109 52.1652832 13.17480469 C51.02410967 15.9415468 49.7424483 18.55196759 48.35546875 21.203125 C47.84306641 22.18410156 47.33066406 23.16507813 46.80273438 24.17578125 C46.26970703 25.19027344 45.73667969 26.20476563 45.1875 27.25 C44.66607422 28.24902344 44.14464844 29.24804688 43.60742188 30.27734375 C43.09115234 31.26347656 42.57488281 32.24960938 42.04296875 33.265625 C41.53685059 34.23693359 41.03073242 35.20824219 40.50927734 36.20898438 C39.54208026 37.99756364 38.52993762 39.76297382 37.46337891 41.49414062 C36.76414307 42.63399414 36.76414307 42.63399414 36.05078125 43.796875 C35.63094971 44.44495117 35.21111816 45.09302734 34.77856445 45.76074219 C32.55242724 52.16341718 36.41957045 59.00145573 38.9296875 64.84375 C39.32068634 65.77167358 39.71168518 66.69959717 40.11453247 67.65563965 C41.36031401 70.607091 42.61746467 73.55354025 43.875 76.5 C44.71299259 78.48015025 45.55023975 80.46061614 46.38671875 82.44140625 C49.5697407 89.97010755 52.77691591 97.4883705 56 105 C58.97 105.33 61.94 105.66 65 106 C65 109.3 65 112.6 65 116 C55.76 116 46.52 116 37 116 C37 112.7 37 109.4 37 106 C39.97 105.505 39.97 105.505 43 105 C42.78702271 104.49301071 42.57404541 103.98602142 42.35461426 103.46366882 C40.14228701 98.19434177 37.93739078 92.92195086 35.73681641 87.64770508 C34.91418234 85.67880692 34.08964618 83.71070238 33.26318359 81.7434082 C32.07671133 78.91823684 30.8970716 76.09029756 29.71875 73.26171875 C29.16096863 71.93970711 29.16096863 71.93970711 28.59191895 70.59098816 C28.25156616 69.77036392 27.91121338 68.94973969 27.56054688 68.10424805 C27.2585437 67.38254929 26.95654053 66.66085052 26.64538574 65.9172821 C26 64 26 64 26 61 C25.34 61 24.68 61 24 61 C23.21670663 63.79185806 22.8572482 66.32165488 22.79467773 69.21777344 C22.77473251 70.03832214 22.75478729 70.85887085 22.73423767 71.70428467 C22.71752518 72.58046448 22.70081268 73.45664429 22.68359375 74.359375 C22.66281265 75.26375305 22.64203156 76.1681311 22.62062073 77.09991455 C22.5553406 79.98320055 22.49634048 82.8665761 22.4375 85.75 C22.39429429 87.70704044 22.35067935 89.66407188 22.30664062 91.62109375 C22.19968128 96.4139712 22.09835327 101.20693854 22 106 C25.3 106 28.6 106 32 106 C32 109.3 32 112.6 32 116 C21.44 116 10.88 116 0 116 C0 112.7 0 109.4 0 106 C3.3 106 6.6 106 10 106 C10 74.65 10 43.3 10 11 C6.7 11 3.4 11 0 11 C0 7.37 0 3.74 0 0 Z " fill="#8EB4E5" transform="translate(1224,2104)"/>
<path d="M0 0 C4.98043609 -0.07461471 9.96054089 -0.12881987 14.94140625 -0.16479492 C16.63287022 -0.17980505 18.32429578 -0.20021963 20.015625 -0.22631836 C22.45843024 -0.26304686 24.9007173 -0.27980411 27.34375 -0.29296875 C28.46299866 -0.31619453 28.46299866 -0.31619453 29.6048584 -0.33988953 C36.117639 -0.34193877 41.49258114 1.06244906 46.75 5.125 C55.53258271 16.34718901 54.72928248 30.44615006 54 44 C53.03051245 51.44369253 50.44092015 57.69210968 45 63 C42.80859375 64.21484375 42.80859375 64.21484375 41 65 C41.6336481 69.83467402 43.0153203 74.19212569 44.72265625 78.734375 C44.98759384 79.45361145 45.25253143 80.1728479 45.52549744 80.91387939 C46.36616523 83.19447255 47.21376026 85.4723998 48.0625 87.75 C48.91406565 90.04214089 49.76406207 92.33482221 50.61021423 94.62896729 C51.1354963 96.05252426 51.6640114 97.47489326 52.19606018 98.89593506 C54 103.77578178 54 103.77578178 54 106 C56.97 106 59.94 106 63 106 C63 109.3 63 112.6 63 116 C54.09 116 45.18 116 36 116 C36 112.7 36 109.4 36 106 C38.475 105.505 38.475 105.505 41 105 C40.63648438 103.92516357 40.27296875 102.85032715 39.8984375 101.74291992 C38.55208248 97.75811878 37.21166766 93.77134084 35.87304688 89.78393555 C35.29263794 88.05780326 34.71061526 86.33221272 34.12695312 84.60717773 C33.28872539 82.12884623 32.45630328 79.64863015 31.625 77.16796875 C31.36251465 76.39599655 31.1000293 75.62402435 30.82958984 74.82865906 C29.8105184 71.77240588 29 69.24447245 29 66 C26.69 66 24.38 66 22 66 C22 79.2 22 92.4 22 106 C25.3 106 28.6 106 32 106 C32 109.3 32 112.6 32 116 C21.44 116 10.88 116 0 116 C0 112.7 0 109.4 0 106 C3.63 106 7.26 106 11 106 C11 74.65 11 43.3 11 11 C7.37 11 3.74 11 0 11 C0 7.37 0 3.74 0 0 Z M22 11 C22 25.85 22 40.7 22 56 C33.74882221 57.09854361 33.74882221 57.09854361 38.1875 54.125 C44.23237362 43.7028041 42.73234475 29.84529394 40.828125 18.40234375 C39.91677382 15.32178233 39.91677382 15.32178233 36 11 C31.38 11 26.76 11 22 11 Z " fill="#8EB3E4" transform="translate(923,2104)"/>
<path d="M0 0 C10.98405342 8.20385732 14.40158269 22.33362422 16.53491211 35.23486328 C17.01488023 39.12046347 17.19522023 42.94670129 17.23828125 46.85546875 C17.2480751 47.59102493 17.25786896 48.32658112 17.26795959 49.08442688 C17.76061886 95.65467595 17.76061886 95.65467595 3.5625 111.0625 C-1.84436207 115.90270404 -7.26907967 117.60549709 -14.4453125 117.34375 C-20.36470707 116.54725654 -25.17698159 114.27011936 -29.25 109.875 C-44.08436516 90.36903918 -44.06411801 60.7033951 -41.25 37.4375 C-39.19275023 23.48272882 -35.72405367 8.97546848 -24 0 C-16.29477864 -4.34772531 -7.70675153 -4.33311331 0 0 Z M-22 13 C-29.61783467 24.72371844 -29.49690654 41.05991688 -29.39111328 54.56347656 C-29.37500915 56.99861619 -29.3910786 59.4320971 -29.41015625 61.8671875 C-29.42877308 75.41101616 -28.93087193 90.4663131 -21 102 C-18.31181596 104.68818404 -15.89512565 106.88543748 -12 107 C-6.82322562 105.33603681 -3.78021208 103.69759973 -1 99 C9.04406181 75.94683968 8.57832897 41.62937813 0.125 18.125 C-1.63258864 14.2365896 -3.74064019 11.73081497 -7 9 C-7.33 8.67 -7.66 8.34 -8 8 C-14.15334438 7.37423616 -17.96938594 7.92262945 -22 13 Z " fill="#8EB4E5" transform="translate(558,2105)"/>
<path d="M0 0 C2.30006465 1.23708656 3.75718922 2.25718922 5.625 4.125 C5.955 2.805 6.285 1.485 6.625 0.125 C9.925 0.125 13.225 0.125 16.625 0.125 C16.625 12.665 16.625 25.205 16.625 38.125 C13.325 38.125 10.025 38.125 6.625 38.125 C6.51542969 36.89523438 6.40585937 35.66546875 6.29296875 34.3984375 C6.13343514 32.76556405 5.97324407 31.13275474 5.8125 29.5 C5.74224609 28.69175781 5.67199219 27.88351563 5.59960938 27.05078125 C4.97992156 20.95305318 3.70079205 16.37871708 -0.5625 11.75 C-4.29864737 9.59133707 -7.15844914 9.31082859 -11.375 10.125 C-16.7064112 12.91187404 -18.48292821 17.68529361 -20.375 23.125 C-23.53843041 34.06519682 -23.61391044 45.32636804 -23.625 56.625 C-23.62600708 57.33609924 -23.62701416 58.04719849 -23.62805176 58.77984619 C-23.61343067 74.04039237 -23.31436708 90.76522008 -14.0625 103.6875 C-10.72200771 106.71724882 -8.85800183 107.2050536 -4.375 107.125 C-1.59192394 105.78957328 -1.59192394 105.78957328 0.625 104.125 C1.285 104.125 1.945 104.125 2.625 104.125 C4.93558985 100.47670023 4.96781599 96.92431605 5.0390625 92.734375 C5.05842865 92.02976135 5.0777948 91.32514771 5.0977478 90.59918213 C5.15732735 88.35790961 5.20384123 86.11658511 5.25 83.875 C5.28819979 82.35154062 5.32725269 80.82810238 5.3671875 79.3046875 C5.46301018 75.57831894 5.54712107 71.85179165 5.625 68.125 C2.325 68.125 -0.975 68.125 -4.375 68.125 C-4.375 64.825 -4.375 61.525 -4.375 58.125 C4.865 58.125 14.105 58.125 23.625 58.125 C23.625 61.425 23.625 64.725 23.625 68.125 C21.315 68.125 19.005 68.125 16.625 68.125 C16.625 83.965 16.625 99.805 16.625 116.125 C12.995 116.125 9.365 116.125 5.625 116.125 C5.295 115.135 4.965 114.145 4.625 113.125 C3.696875 113.764375 2.76875 114.40375 1.8125 115.0625 C-3.50584641 118.50378297 -8.18796659 118.78520174 -14.375 118.125 C-21.06337399 115.95650374 -25.57874758 110.54958322 -28.75390625 104.49609375 C-39.99798388 79.28922121 -39.80073493 44.64104569 -30.78515625 18.765625 C-27.45694344 10.17311992 -23.48505657 3.81119473 -15.375 -0.875 C-9.79701171 -2.73432943 -5.2218809 -2.55862652 0 0 Z " fill="#8EB3E4" transform="translate(665.375,2103.875)"/>
<path d="M0 0 C8.25 0 16.5 0 25 0 C28.7294341 18.75794579 31.79770757 37.61288544 34.85595703 56.48925781 C35.60667174 61.12204587 36.3636745 65.75378281 37.12228012 70.38528442 C37.71011768 73.97932364 38.29429078 77.57395117 38.877388 81.16876221 C39.15525379 82.87855938 39.43434649 84.58815766 39.71471405 86.29754639 C40.10364242 88.67172551 40.48752268 91.04666813 40.87011719 93.421875 C41.04303032 94.46751114 41.04303032 94.46751114 41.21943665 95.53427124 C41.78148426 99.0586581 42.12439555 102.43048211 42 106 C44.64 106 47.28 106 50 106 C50 109.3 50 112.6 50 116 C40.76 116 31.52 116 22 116 C22 112.7 22 109.4 22 106 C24.97 106 27.94 106 31 106 C30.79503906 104.91203125 30.59007812 103.8240625 30.37890625 102.703125 C28.79621625 94.13079111 27.55155076 85.71450199 27 77 C19.08 77.495 19.08 77.495 11 78 C9.68 87.24 8.36 96.48 7 106 C9.97 106 12.94 106 16 106 C16 109.3 16 112.6 16 116 C6.76 116 -2.48 116 -12 116 C-12 112.7 -12 109.4 -12 106 C-9.36 106 -6.72 106 -4 106 C-3.94290611 104.92278435 -3.94290611 104.92278435 -3.88465881 103.82380676 C-3.24117988 93.77197258 -1.68582111 83.94287081 -0.05859375 74.01171875 C0.23190641 72.21433411 0.5219321 70.41687274 0.81150818 68.61933899 C1.56795078 63.9317321 2.33075329 59.24518265 3.0949707 54.55883789 C3.87646835 49.75925884 4.65182831 44.95868869 5.42773438 40.15820312 C6.94588138 30.77116587 8.4707618 21.38523631 10 12 C6.7 11.67 3.4 11.34 0 11 C0 7.37 0 3.74 0 0 Z M18 22 C17.1428256 27.92612994 16.28839678 33.85264673 15.43652344 39.77954102 C15.14626515 41.79625172 14.85525344 43.81285414 14.56347656 45.8293457 C14.14450701 48.72579339 13.72823775 51.62261816 13.3125 54.51953125 C13.18125732 55.42274612 13.05001465 56.325961 12.91479492 57.25654602 C12.79467041 58.09719101 12.6745459 58.937836 12.55078125 59.80395508 C12.44419189 60.54341873 12.33760254 61.28288239 12.2277832 62.04475403 C11.94214205 64.16856293 11.94214205 64.16856293 12 67 C16.29 67 20.58 67 25 67 C23.50233132 51.92478232 21.29045076 36.97294668 19 22 C18.67 22 18.34 22 18 22 Z " fill="#8EB4E5" transform="translate(1126,2104)"/>
<path d="M0 0 C17.16 0 34.32 0 52 0 C52 11.88 52 23.76 52 36 C48.7 36 45.4 36 42 36 C42 27.75 42 19.5 42 11 C35.73 11 29.46 11 23 11 C23 23.87 23 36.74 23 50 C28.94 50 34.88 50 41 50 C41 53.3 41 56.6 41 60 C35.06 60 29.12 60 23 60 C23 75.18 23 90.36 23 106 C29.6 106 36.2 106 43 106 C43 97.09 43 88.18 43 79 C46.3 79 49.6 79 53 79 C53 91.21 53 103.42 53 116 C35.51 116 18.02 116 0 116 C0 112.7 0 109.4 0 106 C3.63 106 7.26 106 11 106 C11 74.65 11 43.3 11 11 C7.37 11 3.74 11 0 11 C0 7.37 0 3.74 0 0 Z " fill="#8DB4E4" transform="translate(819,2104)"/>
<path d="M0 0 C10.56 0 21.12 0 32 0 C32 3.63 32 7.26 32 11 C28.7 11 25.4 11 22 11 C22 42.35 22 73.7 22 106 C25.3 106 28.6 106 32 106 C32 109.3 32 112.6 32 116 C21.44 116 10.88 116 0 116 C0 112.7 0 109.4 0 106 C3.63 106 7.26 106 11 106 C11 74.65 11 43.3 11 11 C7.37 11 3.74 11 0 11 C0 7.37 0 3.74 0 0 Z " fill="#8DB3E4" transform="translate(1033,2104)"/>
<path d="M0 0 C10.56 0 21.12 0 32 0 C32 3.63 32 7.26 32 11 C28.37 11 24.74 11 21 11 C21 42.35 21 73.7 21 106 C24.63 106 28.26 106 32 106 C32 109.3 32 112.6 32 116 C21.44 116 10.88 116 0 116 C0 112.7 0 109.4 0 106 C3.3 106 6.6 106 10 106 C10 74.65 10 43.3 10 11 C6.7 11 3.4 11 0 11 C0 7.37 0 3.74 0 0 Z " fill="#8DB3E4" transform="translate(739,2104)"/>
<path d="M0 0 C10.23 0 20.46 0 31 0 C31 3.63 31 7.26 31 11 C27.7 11 24.4 11 21 11 C21 42.35 21 73.7 21 106 C24.3 106 27.6 106 31 106 C31 109.3 31 112.6 31 116 C20.77 116 10.54 116 0 116 C0 112.7 0 109.4 0 106 C3.3 106 6.6 106 10 106 C10 74.65 10 43.3 10 11 C6.7 11 3.4 11 0 11 C0 7.37 0 3.74 0 0 Z " fill="#8DB3E4" transform="translate(1455,2104)"/>
</svg>
