<?xml version="1.0" encoding="UTF-8"?>
<svg version="1.1" xmlns="http://www.w3.org/2000/svg" width="2000" height="1500">
<path d="M0 0 C660 0 1320 0 2000 0 C2000 495 2000 990 2000 1500 C1340 1500 680 1500 0 1500 C0 1005 0 510 0 0 Z " fill="#FEFEFE" transform="translate(0,0)"/>
<path d="M0 0 C1.5778125 1.11375 1.5778125 1.11375 3.1875 2.25 C17.25725254 16.00709137 24.03385381 34.96464864 24.37738037 54.35050964 C24.39986427 60.06838758 24.33446246 65.7828478 24.25 71.5 C24.22989196 73.88409948 24.21164886 76.26821545 24.1953125 78.65234375 C24.15168759 84.43526174 24.08512116 90.21755156 24 96 C25.13491064 95.99631283 26.26982128 95.99262566 27.43912315 95.98882675 C55.06521583 95.8999938 82.69128997 95.83428046 110.31749535 95.79275131 C123.67737692 95.77213387 137.03715274 95.74402872 150.39697266 95.69824219 C162.04258209 95.65834962 173.68812314 95.63256124 185.333799 95.62364602 C191.4990203 95.61843544 197.664046 95.60620527 203.82920456 95.57707977 C209.63547661 95.5498727 215.44147299 95.54156583 221.24780273 95.54756927 C223.37541834 95.54647142 225.50304343 95.53854933 227.63060379 95.5231781 C251.8962324 95.35650479 251.8962324 95.35650479 261.46875 104.296875 C267.85743403 111.40265622 270.31761557 118.78617408 270.22705078 128.30029297 C270.22741239 129.5354449 270.22741239 129.5354449 270.2277813 130.79554939 C270.22629593 133.44454107 270.21109902 136.09324658 270.1953125 138.7421875 C270.19236965 140.38419459 270.1903307 142.02620355 270.18920898 143.66821289 C270.17874965 149.73717065 270.1508271 155.80608818 270.125 161.875 C270.08375 175.44625 270.0425 189.0175 270 203 C306.3 203 342.6 203 380 203 C381.485 198.05 381.485 198.05 383 193 C389.98087649 177.76899676 403.62773838 166.13403426 419 160 C437.83156657 154.22237981 454.48708393 156.95927196 471.73828125 166.01953125 C485.57122323 174.41869483 494.87618463 187.8949644 499.875 203.125 C504.14072263 220.67032343 499.96516359 237.79748334 491.14892578 253.14160156 C483.57950965 265.38520453 470.31899188 274.53575862 456.61328125 278.73046875 C439.17381551 282.19467502 422.59928184 280.9841542 407.1875 271.75 C393.66240092 262.42511742 385.41460891 251.54516751 380 236 C380 235.34 380 234.68 380 234 C379.10796419 234.00553076 379.10796419 234.00553076 378.19790745 234.01117325 C363.69919938 234.09967517 349.20050733 234.1657828 334.70159245 234.20724869 C327.6898787 234.22783653 320.67834573 234.25588423 313.66674805 234.30175781 C306.89754466 234.34602425 300.12852904 234.36915198 293.35918999 234.37950897 C290.77926112 234.38688793 288.19934229 234.40129726 285.61949348 234.42292023 C282.0000926 234.45204404 278.38146249 234.45595207 274.76196289 234.45410156 C273.70028397 234.46848267 272.63860504 234.48286377 271.54475403 234.49768066 C261.85916919 234.44425348 254.86623121 231.50952186 247.7890625 224.92578125 C225.16388739 200.57160804 239 147.61226659 239 127 C168.05 127 97.1 127 24 127 C24 197.95 24 268.9 24 342 C70.53 342 117.06 342 165 342 C165.33 339.69 165.66 337.38 166 335 C172.02624458 319.93438856 183.84425098 307.64077322 198.5 300.75 C199.99360803 300.15048951 201.49368805 299.56683516 203 299 C203.69867187 298.7009375 204.39734375 298.401875 205.1171875 298.09375 C218.36077929 293.14458767 236.15595735 294.77580277 248.84716797 300.44287109 C264.65192298 307.96314345 276.62042344 320.66686655 282.81176758 337.1628418 C284.98357391 343.78564647 285.50733796 349.86694851 285.4375 356.8125 C285.42614014 358.39744263 285.42614014 358.39744263 285.41455078 360.0144043 C285.24603593 368.00778936 284.34587278 374.65795941 281 382 C280.39865234 383.38445312 280.39865234 383.38445312 279.78515625 384.796875 C272.17544874 400.41331823 259.22633257 410.00468177 243.23828125 415.95703125 C226.77264356 421.26019803 210.83299341 420.23792099 195.25 412.25 C180.87814963 403.80838451 171.20845031 392.40471732 165 377 C165 375.68 165 374.36 165 373 C118.47 373 71.94 373 24 373 C24 418.54 24 464.08 24 511 C38.75460937 510.95359375 53.50921875 510.9071875 68.7109375 510.859375 C78.05338821 510.83893901 87.39582274 510.8195178 96.73828125 510.8046875 C111.5698805 510.78095462 126.40138885 510.75305697 141.23291016 510.69824219 C152.03471624 510.65833962 162.83644855 510.63255888 173.63832629 510.62364602 C179.35642354 510.61843712 185.07430978 510.60621778 190.79233932 510.57707977 C196.17837981 510.54985682 201.56412308 510.54156899 206.95022583 510.54756927 C208.92303713 510.54647212 210.89585874 510.53855945 212.86861038 510.5231781 C235.93628654 510.35219872 235.93628654 510.35219872 244.82568359 518.95678711 C245.65332214 519.74721405 246.48096069 520.53764099 247.3336792 521.35202026 C248.21356506 522.22585358 249.09345093 523.09968689 250 524 C250.98326719 524.9620847 251.96694558 525.9237493 252.95098877 526.88504028 C256.25491634 530.12946291 259.52241501 533.40952392 262.7890625 536.69140625 C263.98524287 537.88945673 265.18164795 539.0872829 266.37826538 540.28489685 C269.49407528 543.40448528 272.60686779 546.527067 275.71899414 549.65032959 C278.90846561 552.85011669 282.10084711 556.04699773 285.29296875 559.24414062 C291.53146191 565.49328861 297.76676337 571.74560887 304 578 C304.60359848 577.79703308 305.20719696 577.59406616 305.8290863 577.38494873 C306.62855179 577.11708557 307.42801727 576.84922241 308.25170898 576.57324219 C309.04093246 576.30840027 309.83015594 576.04355835 310.64329529 575.77069092 C317.36629389 573.57213208 323.35481731 572.68140259 330.4375 572.75 C331.23220703 572.74226562 332.02691406 572.73453125 332.84570312 572.7265625 C349.63813407 572.78121647 364.18886599 579.70966248 376.28125 591.16015625 C389.68408064 605.3620018 393.69648928 621.37381043 393.33984375 640.32421875 C392.5495219 656.31101959 383.65174464 670.65124329 372.17578125 681.30078125 C359.33289341 692.57909322 343.72532847 696.42611348 326.98046875 696.27734375 C309.84438583 695.08336741 294.37248692 685.8022644 283.2421875 673.03515625 C272.78087396 658.87410987 267.9990611 642.51099957 270 625 C271.43658838 617.4889791 274.16671318 610.56337161 277.59887695 603.75976562 C278.04866409 602.86632446 278.49845123 601.9728833 278.96186829 601.05236816 C279.30445175 600.37508667 279.64703522 599.69780518 280 599 C263.87661854 575.3248259 242.36054787 545.94195333 212.74462891 539.90673828 C200.19284684 537.7134979 187.49589227 537.35792327 174.78125 537.3125 C173.2911696 537.30350426 173.2911696 537.30350426 171.77098656 537.29432678 C154.64842478 537.2373997 137.61216794 538.21152319 120.5 539 C88.655 539.99 56.81 540.98 24 542 C24 618.23 24 694.46 24 773 C156.66 773 289.32 773 426 773 C426.99 769.7 427.98 766.4 429 763 C436.17885163 747.89598048 448.04854557 735.69078915 464 730 C464.68449219 729.70351563 465.36898437 729.40703125 466.07421875 729.1015625 C479.61007521 723.95179512 496.68011314 726.13809745 510 731 C525.01431982 737.85050526 536.90111955 749.95384389 543.4375 765.125 C549.54608301 782.50238455 548.12919898 800.0629524 540.69921875 816.66796875 C538.32328294 821.32698771 535.51206795 825.14492753 532 829 C531.07380859 830.04607422 531.07380859 830.04607422 530.12890625 831.11328125 C525.34621082 836.22316309 520.17680049 839.75160414 514 843 C513.29230469 843.38027344 512.58460938 843.76054688 511.85546875 844.15234375 C497.55545639 851.18296207 481.78581076 851.77800719 466.69921875 847.3125 C449.6954671 841.27948991 437.87721856 830.40544393 429.69140625 814.44921875 C427.86001716 810.57732002 427 808.38218668 427 804 C294.01 804 161.02 804 24 804 C24 832.05 24 860.1 24 889 C20.62783298 910.91908561 12.16890103 929.90126904 -5.6875 943.9375 C-19.46270579 953.42752103 -35.10435582 960.85627964 -51 966 C-52.69382812 966.56267578 -52.69382812 966.56267578 -54.421875 967.13671875 C-88.2774175 977.6288166 -122.43196591 974.23288916 -153.86279297 958.15478516 C-173.56181877 947.5109204 -199.65283173 928.08711489 -208.88745117 906.97070312 C-210.64624494 903.27048305 -211.98281992 901.41491271 -215.85375977 899.8359375 C-218.86982036 899.07197492 -221.87841548 898.41599525 -224.94021606 897.8638916 C-228.34897159 897.24283944 -231.73124929 896.49950309 -235.1171875 895.765625 C-236.13332878 895.54866974 -236.13332878 895.54866974 -237.16999817 895.32733154 C-273.05125525 887.52199403 -307.12946432 865.66174281 -327.40185547 834.87329102 C-331.64117508 828.21043557 -335.06434929 821.32556093 -338 814 C-338.26796387 813.33194336 -338.53592773 812.66388672 -338.81201172 811.97558594 C-348.9040872 786.06629862 -350.8154137 757.2873443 -346 730 C-345.72966092 728.29350578 -345.46299736 726.58642685 -345.19921875 724.87890625 C-344.48342051 720.24971078 -343.74666001 715.62431432 -343 711 C-344.70542969 710.09121094 -344.70542969 710.09121094 -346.4453125 709.1640625 C-356.50572847 703.73378031 -365.91866013 697.94323011 -375 691 C-376.35931641 689.97712891 -376.35931641 689.97712891 -377.74609375 688.93359375 C-410.11573112 663.58619569 -431.74677955 627.94390158 -437 587 C-437.7750105 571.22971052 -437.79697751 555.38515563 -434 540 C-433.73316406 538.7728125 -433.46632813 537.545625 -433.19140625 536.28125 C-428.10799757 514.77278304 -416.90945132 495.91164656 -403 479 C-401.66448166 477.33508369 -400.33029876 475.6690898 -399 474 C-400.5299141 469.7242927 -402.73466095 466.02123414 -405.125 462.1875 C-409.90962521 454.35150018 -414.08571465 446.30127948 -418 438 C-418.78503906 436.34291016 -418.78503906 436.34291016 -419.5859375 434.65234375 C-426.83211159 418.56890444 -431.84990928 401.34008269 -435 384 C-435.22429687 382.79633789 -435.22429687 382.79633789 -435.453125 381.56835938 C-446.09806562 322.33293549 -430.3521845 252.84668542 -396.375 203.375 C-389.29690005 193.32025724 -381.37683379 183.99299319 -373 175 C-372.31550781 174.26136719 -371.63101563 173.52273438 -370.92578125 172.76171875 C-364.5275542 166.10330502 -357.36726604 160.53097387 -350 155 C-348.75089844 154.05833984 -348.75089844 154.05833984 -347.4765625 153.09765625 C-327.90609167 138.9040554 -296.24951251 119.37099919 -271 121 C-270.83491943 120.44892578 -270.66983887 119.89785156 -270.49975586 119.33007812 C-268.72598264 113.68565479 -266.47159102 108.64396218 -263.5625 103.5 C-263.13074463 102.73171875 -262.69898926 101.9634375 -262.25415039 101.171875 C-255.12815165 88.74926869 -246.8336659 77.40985726 -237 67 C-235.89140313 65.6912398 -234.78709026 64.37883641 -233.6875 63.0625 C-197.79474678 22.286379 -140.18655825 1.47536393 -88 -7 C-87.18305664 -7.13744629 -86.36611328 -7.27489258 -85.52441406 -7.41650391 C-24.19362978 -17.67043267 -24.19362978 -17.67043267 0 0 Z " fill="#FEFEFE" transform="translate(938,262)"/>
<path d="M0 0 C1.5778125 1.11375 1.5778125 1.11375 3.1875 2.25 C17.25725254 16.00709137 24.03385381 34.96464864 24.37738037 54.35050964 C24.39986427 60.06838758 24.33446246 65.7828478 24.25 71.5 C24.22989196 73.88409948 24.21164886 76.26821545 24.1953125 78.65234375 C24.15168759 84.43526174 24.08512116 90.21755156 24 96 C25.13491064 95.99631283 26.26982128 95.99262566 27.43912315 95.98882675 C55.06521583 95.8999938 82.69128997 95.83428046 110.31749535 95.79275131 C123.67737692 95.77213387 137.03715274 95.74402872 150.39697266 95.69824219 C162.04258209 95.65834962 173.68812314 95.63256124 185.333799 95.62364602 C191.4990203 95.61843544 197.664046 95.60620527 203.82920456 95.57707977 C209.63547661 95.5498727 215.44147299 95.54156583 221.24780273 95.54756927 C223.37541834 95.54647142 225.50304343 95.53854933 227.63060379 95.5231781 C251.8962324 95.35650479 251.8962324 95.35650479 261.46875 104.296875 C267.85743403 111.40265622 270.31761557 118.78617408 270.22705078 128.30029297 C270.22741239 129.5354449 270.22741239 129.5354449 270.2277813 130.79554939 C270.22629593 133.44454107 270.21109902 136.09324658 270.1953125 138.7421875 C270.19236965 140.38419459 270.1903307 142.02620355 270.18920898 143.66821289 C270.17874965 149.73717065 270.1508271 155.80608818 270.125 161.875 C270.08375 175.44625 270.0425 189.0175 270 203 C306.3 203 342.6 203 380 203 C381.485 198.05 381.485 198.05 383 193 C389.98087649 177.76899676 403.62773838 166.13403426 419 160 C437.83156657 154.22237981 454.48708393 156.95927196 471.73828125 166.01953125 C485.57122323 174.41869483 494.87618463 187.8949644 499.875 203.125 C504.14072263 220.67032343 499.96516359 237.79748334 491.14892578 253.14160156 C483.57950965 265.38520453 470.31899188 274.53575862 456.61328125 278.73046875 C439.17381551 282.19467502 422.59928184 280.9841542 407.1875 271.75 C393.66240092 262.42511742 385.41460891 251.54516751 380 236 C380 235.34 380 234.68 380 234 C379.10796419 234.00553076 379.10796419 234.00553076 378.19790745 234.01117325 C363.69919938 234.09967517 349.20050733 234.1657828 334.70159245 234.20724869 C327.6898787 234.22783653 320.67834573 234.25588423 313.66674805 234.30175781 C306.89754466 234.34602425 300.12852904 234.36915198 293.35918999 234.37950897 C290.77926112 234.38688793 288.19934229 234.40129726 285.61949348 234.42292023 C282.0000926 234.45204404 278.38146249 234.45595207 274.76196289 234.45410156 C273.70028397 234.46848267 272.63860504 234.48286377 271.54475403 234.49768066 C261.85916919 234.44425348 254.86623121 231.50952186 247.7890625 224.92578125 C225.16388739 200.57160804 239 147.61226659 239 127 C168.05 127 97.1 127 24 127 C24 197.95 24 268.9 24 342 C70.53 342 117.06 342 165 342 C165.33 339.69 165.66 337.38 166 335 C172.02624458 319.93438856 183.84425098 307.64077322 198.5 300.75 C199.99360803 300.15048951 201.49368805 299.56683516 203 299 C203.69867187 298.7009375 204.39734375 298.401875 205.1171875 298.09375 C218.36077929 293.14458767 236.15595735 294.77580277 248.84716797 300.44287109 C264.65192298 307.96314345 276.62042344 320.66686655 282.81176758 337.1628418 C284.98357391 343.78564647 285.50733796 349.86694851 285.4375 356.8125 C285.42614014 358.39744263 285.42614014 358.39744263 285.41455078 360.0144043 C285.24603593 368.00778936 284.34587278 374.65795941 281 382 C280.39865234 383.38445312 280.39865234 383.38445312 279.78515625 384.796875 C272.17544874 400.41331823 259.22633257 410.00468177 243.23828125 415.95703125 C226.77264356 421.26019803 210.83299341 420.23792099 195.25 412.25 C180.87814963 403.80838451 171.20845031 392.40471732 165 377 C165 375.68 165 374.36 165 373 C118.47 373 71.94 373 24 373 C24 418.54 24 464.08 24 511 C38.75460937 510.95359375 53.50921875 510.9071875 68.7109375 510.859375 C78.05338821 510.83893901 87.39582274 510.8195178 96.73828125 510.8046875 C111.5698805 510.78095462 126.40138885 510.75305697 141.23291016 510.69824219 C152.03471624 510.65833962 162.83644855 510.63255888 173.63832629 510.62364602 C179.35642354 510.61843712 185.07430978 510.60621778 190.79233932 510.57707977 C196.17837981 510.54985682 201.56412308 510.54156899 206.95022583 510.54756927 C208.92303713 510.54647212 210.89585874 510.53855945 212.86861038 510.5231781 C235.93628654 510.35219872 235.93628654 510.35219872 244.82568359 518.95678711 C245.65332214 519.74721405 246.48096069 520.53764099 247.3336792 521.35202026 C248.21356506 522.22585358 249.09345093 523.09968689 250 524 C250.98326719 524.9620847 251.96694558 525.9237493 252.95098877 526.88504028 C256.25491634 530.12946291 259.52241501 533.40952392 262.7890625 536.69140625 C263.98524287 537.88945673 265.18164795 539.0872829 266.37826538 540.28489685 C269.49407528 543.40448528 272.60686779 546.527067 275.71899414 549.65032959 C278.90846561 552.85011669 282.10084711 556.04699773 285.29296875 559.24414062 C291.53146191 565.49328861 297.76676337 571.74560887 304 578 C304.60359848 577.79703308 305.20719696 577.59406616 305.8290863 577.38494873 C306.62855179 577.11708557 307.42801727 576.84922241 308.25170898 576.57324219 C309.04093246 576.30840027 309.83015594 576.04355835 310.64329529 575.77069092 C317.36629389 573.57213208 323.35481731 572.68140259 330.4375 572.75 C331.23220703 572.74226562 332.02691406 572.73453125 332.84570312 572.7265625 C349.63813407 572.78121647 364.18886599 579.70966248 376.28125 591.16015625 C389.68408064 605.3620018 393.69648928 621.37381043 393.33984375 640.32421875 C392.5495219 656.31101959 383.65174464 670.65124329 372.17578125 681.30078125 C359.33289341 692.57909322 343.72532847 696.42611348 326.98046875 696.27734375 C309.84438583 695.08336741 294.37248692 685.8022644 283.2421875 673.03515625 C272.78087396 658.87410987 267.9990611 642.51099957 270 625 C271.43658838 617.4889791 274.16671318 610.56337161 277.59887695 603.75976562 C278.04866409 602.86632446 278.49845123 601.9728833 278.96186829 601.05236816 C279.30445175 600.37508667 279.64703522 599.69780518 280 599 C263.87661854 575.3248259 242.36054787 545.94195333 212.74462891 539.90673828 C200.19284684 537.7134979 187.49589227 537.35792327 174.78125 537.3125 C173.2911696 537.30350426 173.2911696 537.30350426 171.77098656 537.29432678 C154.64842478 537.2373997 137.61216794 538.21152319 120.5 539 C88.655 539.99 56.81 540.98 24 542 C24 618.23 24 694.46 24 773 C156.66 773 289.32 773 426 773 C426.99 769.7 427.98 766.4 429 763 C436.17885163 747.89598048 448.04854557 735.69078915 464 730 C464.68449219 729.70351563 465.36898437 729.40703125 466.07421875 729.1015625 C479.61007521 723.95179512 496.68011314 726.13809745 510 731 C525.01431982 737.85050526 536.90111955 749.95384389 543.4375 765.125 C549.54608301 782.50238455 548.12919898 800.0629524 540.69921875 816.66796875 C538.32328294 821.32698771 535.51206795 825.14492753 532 829 C531.07380859 830.04607422 531.07380859 830.04607422 530.12890625 831.11328125 C525.34621082 836.22316309 520.17680049 839.75160414 514 843 C513.29230469 843.38027344 512.58460938 843.76054688 511.85546875 844.15234375 C497.55545639 851.18296207 481.78581076 851.77800719 466.69921875 847.3125 C449.6954671 841.27948991 437.87721856 830.40544393 429.69140625 814.44921875 C427.86001716 810.57732002 427 808.38218668 427 804 C294.01 804 161.02 804 24 804 C24 832.05 24 860.1 24 889 C20.62783298 910.91908561 12.16890103 929.90126904 -5.6875 943.9375 C-19.46270579 953.42752103 -35.10435582 960.85627964 -51 966 C-52.69382812 966.56267578 -52.69382812 966.56267578 -54.421875 967.13671875 C-88.2774175 977.6288166 -122.43196591 974.23288916 -153.86279297 958.15478516 C-173.56181877 947.5109204 -199.65283173 928.08711489 -208.88745117 906.97070312 C-210.64624494 903.27048305 -211.98281992 901.41491271 -215.85375977 899.8359375 C-218.86982036 899.07197492 -221.87841548 898.41599525 -224.94021606 897.8638916 C-228.34897159 897.24283944 -231.73124929 896.49950309 -235.1171875 895.765625 C-236.13332878 895.54866974 -236.13332878 895.54866974 -237.16999817 895.32733154 C-273.05125525 887.52199403 -307.12946432 865.66174281 -327.40185547 834.87329102 C-331.64117508 828.21043557 -335.06434929 821.32556093 -338 814 C-338.26796387 813.33194336 -338.53592773 812.66388672 -338.81201172 811.97558594 C-348.9040872 786.06629862 -350.8154137 757.2873443 -346 730 C-345.72966092 728.29350578 -345.46299736 726.58642685 -345.19921875 724.87890625 C-344.48342051 720.24971078 -343.74666001 715.62431432 -343 711 C-344.70542969 710.09121094 -344.70542969 710.09121094 -346.4453125 709.1640625 C-356.50572847 703.73378031 -365.91866013 697.94323011 -375 691 C-376.35931641 689.97712891 -376.35931641 689.97712891 -377.74609375 688.93359375 C-410.11573112 663.58619569 -431.74677955 627.94390158 -437 587 C-437.7750105 571.22971052 -437.79697751 555.38515563 -434 540 C-433.73316406 538.7728125 -433.46632813 537.545625 -433.19140625 536.28125 C-428.10799757 514.77278304 -416.90945132 495.91164656 -403 479 C-401.66448166 477.33508369 -400.33029876 475.6690898 -399 474 C-400.5299141 469.7242927 -402.73466095 466.02123414 -405.125 462.1875 C-409.90962521 454.35150018 -414.08571465 446.30127948 -418 438 C-418.78503906 436.34291016 -418.78503906 436.34291016 -419.5859375 434.65234375 C-426.83211159 418.56890444 -431.84990928 401.34008269 -435 384 C-435.22429687 382.79633789 -435.22429687 382.79633789 -435.453125 381.56835938 C-446.09806562 322.33293549 -430.3521845 252.84668542 -396.375 203.375 C-389.29690005 193.32025724 -381.37683379 183.99299319 -373 175 C-372.31550781 174.26136719 -371.63101563 173.52273438 -370.92578125 172.76171875 C-364.5275542 166.10330502 -357.36726604 160.53097387 -350 155 C-348.75089844 154.05833984 -348.75089844 154.05833984 -347.4765625 153.09765625 C-327.90609167 138.9040554 -296.24951251 119.37099919 -271 121 C-270.83491943 120.44892578 -270.66983887 119.89785156 -270.49975586 119.33007812 C-268.72598264 113.68565479 -266.47159102 108.64396218 -263.5625 103.5 C-263.13074463 102.73171875 -262.69898926 101.9634375 -262.25415039 101.171875 C-255.12815165 88.74926869 -246.8336659 77.40985726 -237 67 C-235.89140313 65.6912398 -234.78709026 64.37883641 -233.6875 63.0625 C-197.79474678 22.286379 -140.18655825 1.47536393 -88 -7 C-87.18305664 -7.13744629 -86.36611328 -7.27489258 -85.52441406 -7.41650391 C-24.19362978 -17.67043267 -24.19362978 -17.67043267 0 0 Z M-111 29 C-112.23145752 29.32605225 -112.23145752 29.32605225 -113.48779297 29.65869141 C-148.39139586 39.02837573 -180.29811165 55.62001498 -207 80 C-207.83015625 80.75796875 -208.6603125 81.5159375 -209.515625 82.296875 C-224.81667778 96.95592556 -235.1191551 115.41426191 -243.87109375 134.48046875 C-246.76731355 140.67018298 -248.78869197 144.59162881 -255 148 C-258.33984375 148.90625 -258.33984375 148.90625 -261.9375 149.5 C-263.27667905 149.74260131 -264.61521127 149.9887962 -265.953125 150.23828125 C-266.62923828 150.36283691 -267.30535156 150.48739258 -268.00195312 150.61572266 C-308.68503101 158.44015626 -346.25668436 184.04659505 -369.50048828 218.20507812 C-401.73888832 267.43413079 -414.50490737 329.47563141 -402.87890625 387.20703125 C-397.83513378 408.97371155 -390.09467051 435.00052583 -375 452 C-371.4477005 450.77439113 -368.63419609 449.12849041 -365.59863281 446.92822266 C-357.93272687 441.41007336 -349.75364486 437.2077915 -341.25 433.125 C-340.1141748 432.57803467 -338.97834961 432.03106934 -337.80810547 431.4675293 C-328.22788364 426.94233501 -318.5295432 423.23862691 -308.3125 420.4375 C-307.16213257 420.12171997 -307.16213257 420.12171997 -305.98852539 419.79956055 C-287.22704048 414.77164484 -268.2144356 412.6408771 -248.82397461 412.73925781 C-246.30363175 412.75003793 -243.78399425 412.73925319 -241.26367188 412.7265625 C-231.63808815 412.71838808 -222.49894647 413.33177507 -213 415 C-211.65907881 415.2033101 -210.31797543 415.40542878 -208.9765625 415.60546875 C-181.25009283 420.42043843 -141.92386103 431.06139361 -122.375 452.9375 C-120.63647105 456.80967812 -120.2763698 459.82457058 -121 464 C-122.5 467.375 -122.5 467.375 -124 470 C-124 470.66 -124 471.32 -124 472 C-125.175625 472.4640625 -125.175625 472.4640625 -126.375 472.9375 C-128.92330128 473.92875038 -128.92330128 473.92875038 -131 475 C-138.66643439 476.2312634 -143.37674892 473.58623567 -149.625 469.4375 C-151.3991773 468.32177185 -153.17654556 467.2111021 -154.95703125 466.10546875 C-156.25181396 465.29795166 -156.25181396 465.29795166 -157.57275391 464.47412109 C-180.90101327 450.30634499 -209.67109393 443.00674728 -236.828125 442.76171875 C-237.73135498 442.75183426 -238.63458496 442.74194977 -239.56518555 442.73176575 C-266.56326871 442.24210288 -266.56326871 442.24210288 -293 447 C-293.94568848 447.26844727 -294.89137695 447.53689453 -295.86572266 447.81347656 C-322.13496249 455.46175113 -346.59217897 467.56029228 -367 486 C-367.75458496 486.6808667 -367.75458496 486.6808667 -368.52441406 487.37548828 C-388.81840493 505.95058921 -405.72095717 533.31001881 -407.12304688 561.47143555 C-407.47587901 573.97223498 -407.44728049 585.90199676 -404 598 C-403.80132324 598.70286133 -403.60264648 599.40572266 -403.39794922 600.12988281 C-397.54984162 620.34199403 -387.46306723 636.68763348 -373 652 C-372.32582031 652.73863281 -371.65164063 653.47726562 -370.95703125 654.23828125 C-357.96639977 667.96009274 -340.71946491 678.57601944 -323.3125 685.6875 C-317.30365104 688.1464526 -313.52707917 690.44217827 -310 696 C-308.33355181 700.99934456 -308.59927005 705.24621807 -310.3828125 710.1484375 C-312.0122184 714.87352157 -313.12732064 719.60738044 -314.125 724.5 C-314.29386719 725.29019531 -314.46273437 726.08039062 -314.63671875 726.89453125 C-316.53512553 736.0278111 -317.17161174 744.86515208 -317.125 754.1875 C-317.11774902 755.70923828 -317.11774902 755.70923828 -317.11035156 757.26171875 C-316.8762091 786.63254917 -309.10580855 812.89419145 -288 834 C-287.24203125 834.75796875 -286.4840625 835.5159375 -285.703125 836.296875 C-263.8728163 856.98572965 -233.82527759 865.87621639 -204.78662109 870.62060547 C-198.93666653 871.61769132 -194.99497629 872.79444288 -190.890625 877.33203125 C-188.97245173 880.03887494 -187.34851685 882.78145844 -185.75 885.6875 C-182.32997204 891.62716639 -178.46406124 896.8122567 -174 902 C-173.26136719 902.88429688 -172.52273438 903.76859375 -171.76171875 904.6796875 C-161.06678743 917.03749685 -148.41712727 925.55167498 -134 933 C-132.58460938 933.75603516 -132.58460938 933.75603516 -131.140625 934.52734375 C-109.26530303 945.43186031 -83.83001195 943.90706457 -61.12841797 936.52050781 C-42.41394162 930.16265097 -23.06614402 922.50384548 -12.45703125 905.015625 C-7.79221339 895.36082772 -6.42136682 887.26156265 -6.50222206 876.54299164 C-6.49865042 875.09922989 -6.4933254 873.65547161 -6.48642033 872.21172196 C-6.47254662 868.25414522 -6.48346734 864.29697158 -6.49853251 860.33941365 C-6.51050743 856.0301842 -6.49920451 851.7210045 -6.49089086 847.41177511 C-6.47953039 839.86249473 -6.483014 832.31333472 -6.4962616 824.76405907 C-6.51590683 813.53803355 -6.51262952 802.31209606 -6.504761 791.0860603 C-6.49221156 772.19849371 -6.49855315 753.31097707 -6.51594925 734.42341614 C-6.53317618 715.71547482 -6.54298961 697.00755594 -6.54261398 678.29960632 C-6.54259869 677.13604119 -6.5425834 675.97247606 -6.54256765 674.77365137 C-6.54248583 670.05043679 -6.54235461 665.32722222 -6.54215602 660.60400764 C-6.54034364 616.29087422 -6.56023679 571.97777499 -6.59101535 527.66465344 C-6.6182633 488.28961424 -6.63073792 448.91459933 -6.62939453 409.53955078 C-6.62931371 407.01131453 -6.62923299 404.48307828 -6.62915237 401.95484203 C-6.62911167 400.70493387 -6.62907097 399.45502572 -6.62902904 398.16724155 C-6.62882745 391.87544853 -6.62864628 385.58365551 -6.62848854 379.29186249 C-6.62845511 378.05060465 -6.62842169 376.80934682 -6.62838725 375.53047511 C-6.62765696 342.63508656 -6.63673359 309.73970106 -6.64914167 276.84431505 C-6.64958221 275.67421021 -6.65002276 274.50410538 -6.65047665 273.29854282 C-6.65225312 268.59322401 -6.65402992 263.8879052 -6.65585856 259.18258641 C-6.66217885 242.80941373 -6.66519713 226.43624345 -6.66608154 210.06306963 C-6.66727553 188.96372873 -6.67526029 167.86440789 -6.69494446 146.76507556 C-6.70517617 135.6050762 -6.70999262 124.44510626 -6.70695209 113.28510244 C-6.7054836 105.8325031 -6.71128788 98.37993239 -6.72303971 90.92734222 C-6.72954076 86.67996065 -6.73291267 82.43264073 -6.72751851 78.18525618 C-6.72267908 74.31849796 -6.72708669 70.45186283 -6.73875474 66.58512019 C-6.74256625 64.54523296 -6.73664049 62.50533455 -6.73027462 60.46545368 C-6.78401031 48.51588454 -7.51501172 36.23430416 -15.859375 26.92578125 C-22.87680851 20.43873515 -29.25126145 18.43503934 -38.625 18.5 C-40.07894165 18.50640503 -40.07894165 18.50640503 -41.56225586 18.51293945 C-64.71738383 19.01419404 -88.68122075 22.94507728 -111 29 Z " fill="#3B3B3B" transform="translate(938,262)"/>
<path d="M0 0 C12.3189028 6.14037831 23.10349555 13.94253774 33.52758789 22.90625 C34.2559082 23.51210938 34.98422852 24.11796875 35.73461914 24.7421875 C40.48881099 28.76007048 44.56435962 33.11371185 48.52758789 37.90625 C49.15407227 38.64488281 49.78055664 39.38351562 50.42602539 40.14453125 C79.02649589 74.67988199 89.52632385 118.62418773 89.90258789 162.71875 C89.91660645 163.8516748 89.930625 164.98459961 89.94506836 166.15185547 C89.90134935 173.52467437 89.05095016 178.06746744 84.02758789 183.71875 C79.99992255 187.24295718 76.25072846 187.31013339 71.10180664 187.25 C67.03729832 186.7072432 64.21566237 184.97222355 61.52758789 181.90625 C57.37512474 176.04394908 58.09029743 169.42123658 58.02758789 162.53125 C57.06432879 120.25899486 46.93473971 78.19967303 15.52758789 47.90625 C-4.10419061 30.54129554 -27.79925145 18.94795811 -53.72241211 14.84375 C-58.15726889 14.08989226 -61.09053359 13.04067399 -64.47241211 9.90625 C-67.77535503 5.15373965 -69.40953786 0.7372547 -68.47241211 -5.09375 C-66.69773163 -9.02132156 -64.48274899 -12.1428447 -61.34741211 -15.09375 C-42.85231923 -21.52682578 -16.37932248 -7.88973698 0 0 Z " fill="#3B3B3B" transform="translate(721.472412109375,862.09375)"/>
<path d="M0 0 C4.11824176 1.75006657 6.42182012 4.16070662 8.9375 7.8125 C14.77192932 25.31578796 3.01013119 49.89058121 -4.4375 65.5 C-17.37554129 90.28110359 -38.19124127 106.45353441 -64 116 C-64.95132813 116.3815625 -65.90265625 116.763125 -66.8828125 117.15625 C-87.23199775 124.80893505 -115.15267456 126.65921719 -136 120 C-140.75275258 117.21216633 -143.22989987 115.31030039 -145 110 C-145.66003745 104.99675317 -145.58332298 101.21151695 -143.375 96.625 C-139.5411173 92.3875507 -136.87897786 90.14912523 -131.0625 89.6875 C-128.65019365 89.78481172 -126.37049671 90.1043736 -123.984375 90.5 C-99.36063091 94.07288267 -72.52635844 89.51998778 -52 75 C-34.89137018 60.72346358 -23.92177939 38.57258394 -21.74609375 16.4140625 C-21.68550781 15.63804687 -21.62492188 14.86203125 -21.5625 14.0625 C-21.03392916 8.51250623 -18.47121818 5.36356807 -14.4375 1.625 C-9.55263861 -0.6842072 -5.30995922 -0.88627766 0 0 Z " fill="#3B3B3B" transform="translate(843,448)"/>
<path d="M0 0 C0.74620605 0.00572021 1.49241211 0.01144043 2.26123047 0.01733398 C10.56892601 0.28500437 16.35140227 3.15507304 22.5 8.6875 C28.94104129 15.83064532 31.47486967 22.84677153 31.34741211 32.45458984 C30.85224028 41.19814592 27.24871374 48.432512 20.9375 54.5 C12.64360654 60.91248096 4.06434767 62.7775516 -6.3125 61.5 C-15.17043897 59.08172832 -22.63089776 53.46912264 -27.3046875 45.625 C-31.14323522 37.53131798 -31.96795111 28.81255031 -29.28515625 20.203125 C-25.49229474 11.92397024 -20.15398126 5.99602682 -12.046875 1.81640625 C-7.84182376 0.3340817 -4.41727214 -0.03944885 0 0 Z " fill="#FDFDFD" transform="translate(1269.3125,865.5)"/>
<path d="M0 0 C2.69141724 1.90381258 4.88026872 3.91359739 7.015625 6.42578125 C7.69625 7.14765625 8.376875 7.86953125 9.078125 8.61328125 C13.65060055 15.25074576 16.25784635 22.35788047 15.015625 30.42578125 C13.13179771 39.62035551 9.31714738 46.44684002 2.015625 52.42578125 C-5.8508847 57.29290946 -13.85571177 58.66953228 -22.984375 57.42578125 C-31.37698784 55.2307902 -38.15915109 49.55105057 -42.859375 42.36328125 C-46.92862391 35.17016449 -47.85199544 28.64701392 -46.984375 20.42578125 C-46.02348249 17.17162466 -44.67172914 14.36107439 -42.984375 11.42578125 C-42.406875 10.37390625 -41.829375 9.32203125 -41.234375 8.23828125 C-31.3218634 -4.15235825 -14.02153548 -8.24113427 0 0 Z " fill="#FDFDFD" transform="translate(1177.984375,592.57421875)"/>
<path d="M0 0 C7.83033777 5.23557879 13.37018177 11.11057044 15.9921875 20.33203125 C16.84814283 28.82191377 16.45145213 35.97350876 11.9921875 43.33203125 C11.65316406 43.9559375 11.31414062 44.57984375 10.96484375 45.22265625 C6.85727701 51.94678685 -0.67847411 55.90002351 -8.0078125 58.33203125 C-19.30300995 59.59030454 -27.39685641 56.98059231 -36.21875 50.0390625 C-41.85627529 44.66002636 -45.20264284 37.4722037 -45.43945312 29.7109375 C-45.46864125 19.41725992 -43.35892715 12.75233267 -36.3203125 4.95703125 C-26.75563764 -3.82540255 -11.68948222 -6.2417424 0 0 Z " fill="#FDFDFD" transform="translate(1438.0078125,1022.66796875)"/>
<path d="M0 0 C9.18610635 5.17475912 14.30981109 11.49193326 17.625 21.4375 C18.62359171 32.04549058 16.81761722 40.96298904 10 49.3125 C3.37227757 56.07374797 -2.85849494 58.87922936 -12.375 59 C-21.03875338 58.85939735 -29.18147847 56.8030638 -35.375 50.4375 C-42.48640545 41.11603371 -44.39699685 33.15812211 -43.375 21.4375 C-41.72441133 14.22235192 -38.01690678 8.22779821 -32.375 3.4375 C-22.08637483 -2.8482558 -11.32970386 -5.37196551 0 0 Z " fill="#FDFDFD" transform="translate(1390.375,452.5625)"/>
</svg>
